<?xml version="1.0" standalone="no"?>
<!DOCTYPE svg PUBLIC "-//W3C//DTD SVG 20010904//EN"
 "http://www.w3.org/TR/2001/REC-SVG-20010904/DTD/svg10.dtd">
<svg version="1.0" xmlns="http://www.w3.org/2000/svg"
 width="512.000000pt" height="512.000000pt" viewBox="0 0 512.000000 512.000000"
 preserveAspectRatio="xMidYMid meet">
<metadata>
Created by potrace 1.14, written by Peter Selinger 2001-2017
</metadata>
<g transform="translate(0.000000,512.000000) scale(0.100000,-0.100000)"
fill="#000000" stroke="none">
<path d="M2467 5074 c-1 -1 -94 -4 -207 -8 -206 -6 -310 -12 -365 -22 -41 -6
-95 -14 -126 -18 -14 -2 -31 -6 -36 -9 -5 -3 -25 -9 -43 -12 -33 -6 -64 -18
-140 -54 -42 -19 -49 -25 -105 -76 -42 -39 -101 -115 -88 -115 3 0 0 -7 -7
-15 -7 -8 -9 -15 -4 -15 5 0 3 -4 -4 -8 -24 -16 -69 -202 -86 -352 -3 -25 -8
-72 -12 -105 -4 -33 -7 -81 -7 -107 -1 -39 -4 -49 -21 -54 -20 -6 -51 -19
-124 -50 -18 -8 -40 -14 -48 -14 -8 0 -12 -4 -9 -10 3 -5 -2 -10 -11 -10 -48
0 -223 -138 -292 -230 -15 -19 -30 -37 -33 -40 -13 -10 -79 -147 -79 -163 0
-9 -4 -17 -8 -17 -4 0 -9 -8 -10 -17 -2 -22 -10 -58 -12 -58 -3 0 -10 -38 -17
-85 -9 -60 -9 -252 0 -320 15 -117 20 -145 26 -150 3 -3 7 -16 8 -30 5 -49 7
-60 13 -60 3 0 7 -12 8 -26 1 -15 7 -33 13 -40 6 -8 9 -14 6 -14 -3 0 1 -16 9
-35 8 -19 11 -35 8 -35 -4 0 -1 -6 5 -13 6 -8 8 -17 4 -20 -3 -4 -1 -7 5 -7 7
0 12 -7 12 -15 0 -32 147 -338 224 -466 31 -50 56 -95 56 -99 0 -4 9 -15 20
-25 11 -10 20 -23 20 -30 0 -7 11 -24 25 -39 13 -14 24 -27 23 -29 -3 -7 40
-66 45 -60 4 3 7 -1 7 -10 0 -8 6 -22 13 -29 7 -7 35 -42 62 -78 27 -36 54
-70 60 -76 5 -7 26 -31 45 -55 19 -24 45 -53 58 -66 12 -12 22 -27 22 -33 0
-6 5 -8 10 -5 6 3 10 2 10 -4 0 -18 145 -156 213 -202 37 -24 67 -46 67 -49 0
-3 -12 -18 -26 -35 -23 -26 -52 -79 -60 -110 -13 -47 -16 -92 -18 -235 -1 -91
-5 -171 -10 -178 -4 -7 -3 -18 2 -25 5 -7 9 -66 8 -132 -1 -69 4 -145 12 -179
35 -155 151 -291 301 -350 113 -44 129 -45 1076 -45 590 -1 922 3 965 10 80
13 196 58 258 101 41 28 118 101 147 140 19 24 66 118 60 118 -3 0 2 14 11 31
9 18 11 28 4 24 -9 -5 -9 -2 -3 11 6 11 11 44 12 74 2 30 5 58 7 62 3 5 2 8
-3 8 -7 0 -7 150 0 213 2 15 1 27 -2 27 -3 0 -6 60 -5 133 1 72 -3 137 -7 142
-4 6 -10 22 -13 37 -7 41 -41 92 -99 149 l-29 28 25 27 c33 35 65 101 73 150
3 21 7 93 7 159 1 70 6 123 12 127 6 5 6 8 -2 8 -7 0 -10 6 -8 13 3 6 7 41 9
77 3 36 8 101 12 145 4 44 7 88 8 98 0 9 3 17 6 17 3 0 5 15 5 32 -1 18 2 52
6 74 5 23 11 66 14 95 3 30 8 65 10 79 10 58 17 117 19 143 0 15 3 27 6 27 5
0 8 39 13 132 1 21 4 38 7 38 3 0 6 8 6 18 1 9 4 49 8 87 4 39 9 90 11 115 2
25 4 45 5 45 1 0 3 32 5 72 1 39 6 76 9 82 4 6 2 11 -4 11 -7 0 -8 5 -3 13 10
15 11 507 1 507 -3 0 -3 13 2 29 4 16 6 32 2 35 -3 3 -6 32 -8 63 -5 109 -27
308 -34 308 -2 0 -9 35 -14 75 -3 19 -5 35 -6 35 -1 0 -10 32 -21 70 -10 39
-21 77 -23 85 -3 8 -5 17 -6 20 -1 3 -2 8 -1 13 0 4 -3 7 -9 7 -5 0 -10 9 -10
19 0 11 -5 23 -10 26 -6 4 -8 11 -5 16 4 5 1 9 -4 9 -6 0 -11 3 -10 8 2 15
-14 52 -22 52 -5 0 -9 4 -9 9 0 19 -61 100 -118 158 -62 63 -112 106 -112 98
0 -3 -10 3 -22 15 -12 11 -26 20 -31 20 -5 0 -21 9 -35 19 -15 10 -30 20 -34
21 -4 1 -17 4 -28 7 -11 3 -20 10 -20 15 0 5 -6 8 -12 6 -7 -1 -23 3 -35 10
-13 7 -23 11 -23 8 0 -3 -15 1 -34 9 -18 8 -46 17 -62 20 -46 10 -48 10 -59
16 -5 4 -20 5 -32 4 -13 -1 -23 2 -23 7 0 4 -3 7 -7 6 -5 -1 -30 2 -58 6 -27
3 -63 9 -80 11 -16 2 -41 6 -55 9 -33 6 -179 16 -315 23 -96 4 -664 10 -668 7z"/>
</g>
</svg>
